<svg width="49" height="48" viewBox="0 0 49 48" fill="none" xmlns="http://www.w3.org/2000/svg">
<rect x="5.05762" y="17" width="38.7" height="15" rx="7.5" fill="white"/>
<path fill-rule="evenodd" clip-rule="evenodd" d="M13.0848 20H10.4575V29H13.0848V27.0843L13.7585 26.1458L15.2965 29H18.4287H18.4289H21.418V20H18.4287V28.9996L15.6334 23.9087L18.3728 20H15.319L13.0848 23.3686V20ZM27.6398 24.5129C27.6398 25.8114 26.8366 26.3771 25.5916 26.3771H25.1377V22.623H25.5916C26.8366 22.623 27.6398 23.1886 27.6398 24.4871V24.5129ZM25.5331 20H22.4146V29H25.4402C28.7334 29 30.386 27.11 30.386 24.4485V24.423C30.386 21.7615 28.7684 20 25.5331 20ZM31.8779 25.6902L30.3862 27.5373C31.4482 28.5043 32.9757 29 34.6703 29C36.9136 29 38.3577 27.8844 38.3577 26.0621V26.0373C38.3577 24.2893 36.9256 23.6447 34.7895 23.2355C33.9065 23.0619 33.6798 22.9133 33.6798 22.6777V22.653C33.6798 22.4422 33.8707 22.2935 34.2884 22.2935C35.0641 22.2935 36.0068 22.5538 36.7943 23.1488L38.1546 21.1901C37.1881 20.3967 35.9948 20 34.3838 20C32.0807 20 30.8397 21.2769 30.8397 22.9257V22.9506C30.8397 24.7853 32.4865 25.3431 34.3601 25.7398C35.2549 25.9257 35.5176 26.0621 35.5176 26.3099V26.3348C35.5176 26.5703 35.3027 26.7066 34.8015 26.7066C33.8229 26.7066 32.7847 26.4092 31.8779 25.6902Z" fill="black"/>
</svg>
