<svg xmlns="http://www.w3.org/2000/svg" width="154" height="64" viewBox="0 0 154 64" fill="none">
<path d="M87.8166 31.6331C87.783 30.4698 86.6701 28.6056 85.8936 28.6309C85.2769 28.6505 84.7415 29.0766 84.5229 31.0753C84.3042 33.0739 84.2257 36.2696 84.1697 37.9375C84.1108 39.6054 84.2117 42.9384 84.3239 44.1129C84.436 45.2875 85.0583 46.0808 86.3926 46.0415C87.7269 46.0023 88.0073 45.6182 88.1222 44.8417C88.2371 44.0653 88.2932 42.3862 88.2119 40.6342C88.1306 38.8822 87.8531 32.7992 87.8166 31.6331Z" fill="#252526"/>
<path d="M51.0143 10.6681C48.4045 10.2813 45.3126 10.0598 43.4933 10.1131C38.5821 10.2588 35.636 11.3773 35.0305 11.6072C34.1447 11.9436 32.6954 14.0123 32.715 14.6739C32.7431 15.5821 33.8615 16.2296 35.3472 16.1848C36.1602 16.1596 37.4861 16.0755 37.4693 15.4616C37.4496 14.8477 35.1454 14.7271 35.137 14.416C35.123 13.9506 37.9738 13.4405 42.7253 13.3003C54.7874 12.9415 77.3027 23.403 77.6419 34.7924C77.8829 42.9441 67.0318 44.6765 62.2831 44.8166C60.2648 44.8755 58.2045 44.6484 56.2058 44.2251C56.1694 41.7163 56.0965 38.7085 56.0629 37.5451C56.0264 36.3342 56.046 34.5317 56.0516 33.0376C60.4583 33.0656 67.6092 33.8253 67.6597 35.5577C67.6933 36.707 65.1144 36.8724 65.134 37.5844C65.1452 37.9544 66.5496 38.6384 67.7494 38.6019C68.9492 38.5655 71.2338 37.2452 71.1581 34.6635C71.06 31.3333 65.6694 28.5188 56.674 28.788L56.189 28.8048C56.1834 28.2497 56.147 25.1382 55.7685 23.431C55.3536 21.5529 54.2576 20.3251 53.7278 20.3391C52.4103 20.3784 51.987 26.7332 51.8973 29.2281C45.4864 30.2232 40.0062 32.7377 40.0959 35.7511C40.1575 37.775 44.4436 42.9048 51.5609 46.0612C51.7796 48.0235 52.3598 50.4342 53.8483 50.3894C56.2815 50.3165 56.1526 49.4083 56.2114 47.6927C58.8408 48.3823 61.7281 48.7663 64.8341 48.6738C76.6215 48.3234 82.6596 41.7667 82.4521 34.7784C82.1466 24.5047 66.202 12.9219 51.0115 10.6709L51.0143 10.6681ZM51.5077 42.8544C45.9265 40.7856 41.6769 37.6124 41.6264 35.9613C41.5787 34.3831 47.3477 33.545 51.8553 33.2086C51.83 35.8912 51.7656 39.4737 51.5077 42.8544Z" fill="#252526"/>
<path d="M96.9766 17.8722C96.9317 16.3753 95.9618 14.926 93.6156 14.9625C93.3941 14.4103 92.6513 13.2946 90.0022 13.3731C84.2305 13.5441 79.7902 17.8189 79.8883 21.1884C79.922 22.2844 80.449 23.2431 81.2254 24.028C81.0236 24.5774 81.004 24.9475 81.0096 25.1577C81.0264 25.7436 81.9066 27.2881 82.585 27.2685C83.1568 27.2517 83.5465 26.7163 84.0987 25.8473C85.0406 26.2117 85.9769 26.3967 86.7225 26.3743C92.1495 26.2117 97.0747 21.1267 96.9766 17.8722ZM84.4463 19.1981C83.6698 20.0699 83.0531 20.838 82.599 21.5079C82.5177 21.3706 82.4392 21.1547 82.428 20.8156C82.4056 20.0699 83.6922 17.2135 86.9299 16.978C86.1058 17.5442 85.2705 18.2675 84.4463 19.1953V19.1981ZM93.125 17.3592C94.1734 17.3284 94.4481 17.9759 94.4705 18.6935C94.5042 19.8092 92.4831 23.0693 87.9307 23.2039C86.9327 23.2347 86.0918 23.159 85.419 23.0469C86.0862 22.1022 89.5509 17.4657 93.1222 17.3592H93.125Z" fill="#252526"/>
<path d="M99.9759 28.3168C96.7971 28.4122 90.8824 29.4185 90.0358 32.3086C89.6321 33.6906 89.4667 35.3613 90.6357 36.1013C91.8046 36.8414 95.2273 36.8245 97.5091 36.9423C99.7909 37.06 103.735 37.6879 103.774 38.9774C103.802 39.9501 102.137 41.761 96.6401 41.9264C90.4703 42.1086 92.1971 39.4932 93.4305 39.4567C95.5917 39.3923 95.4067 40.9172 99.1574 40.8051C99.9871 40.7799 101.865 40.3089 101.837 39.3923C101.804 38.2626 97.5484 37.2703 94.7984 37.3515C92.0513 37.4328 90.4142 38.8428 90.4619 40.4323C90.5151 42.2207 93.0408 45.7415 99.1686 45.5593C101.201 45.5004 103.853 44.4913 104.643 44.1213C105.266 43.8297 106.645 43.0589 106.538 39.4091C106.401 34.7866 101.812 34.6801 98.9556 34.5063C96.1748 34.3381 93.1445 34.1923 93.1249 33.5336C93.0885 32.289 103.177 31.8601 105.176 31.6583C106.872 31.4873 107.183 30.2454 107.166 29.6512C107.135 28.6364 103.155 28.2243 99.9759 28.3168Z" fill="#252526"/>
<path d="M116.765 25.8276C115.176 25.8753 116.866 28.7766 117.951 34.4026C118.431 36.889 118.994 39.1428 118.237 39.1652C117.477 39.1876 112.978 29.4521 110.828 29.5138C108.179 29.5923 107.293 38.7868 107.372 41.4919C107.453 44.197 108.081 45.5677 109.511 45.5257C110.455 45.4976 111.044 44.5922 111.151 42.8991C111.257 41.2059 111.291 35.5883 111.692 35.5771C112.437 35.5547 115.714 44.6399 118.593 44.5558C121.629 44.4661 122.1 40.0819 121.999 36.732C121.786 29.5194 117.934 25.794 116.76 25.8276H116.765Z" fill="#252526"/>
<path d="M133.768 40.2222C132.579 40.2586 129.686 40.8025 128.621 41.1052C127.556 41.408 126.729 41.5902 126.992 40.766C127.203 40.1101 127.665 38.5515 127.844 37.946L133.277 37.7834C134.337 37.7526 134.393 37.22 134.482 35.8997C134.572 34.5794 133.675 34.7476 132.658 34.7784C132.658 34.7784 130.858 34.8513 128.935 34.9466L129.796 32.6536C131.772 32.5807 133.832 32.3648 135.108 32.3284C137.6 32.2555 137.838 31.6164 137.829 31.3585C137.821 31.1006 137.572 30.4362 136.916 29.4944C136.257 28.5553 135.671 28.1572 133.611 28.2161C131.693 28.2722 123.401 28.9477 123.435 30.0802C123.449 30.596 124.181 31.7453 125.117 32.1939C125.462 32.3592 125.907 32.4714 126.423 32.5471L125.151 35.1708C124.968 35.1849 124.814 35.2017 124.691 35.2157C123.149 35.3895 123.567 36.4099 123.738 37.3349C123.813 37.7442 123.912 37.932 124.038 38.0133C123.514 39.4345 122.964 41.265 123.006 42.6301C123.082 45.2063 125.319 46.6443 126.964 46.5939C130.802 46.4789 134.477 43.3758 135.158 42.7255C135.839 42.0751 134.953 40.183 133.765 40.2166L133.768 40.2222Z" fill="#252526"/>
<path d="M153.628 34.4699C153.538 31.4397 152.378 29.2896 150.435 29.3457C147.592 29.4298 143.508 33.7271 140.226 39.1176C139.931 36.9283 141.658 33.5617 143.13 31.2042C144.164 29.5503 143.982 27.5825 143.553 27.5965C142.95 27.6133 137.131 32.5441 137.33 39.3055C137.369 40.6174 137.711 41.7218 138.28 42.6216C136.055 47.0114 134.558 51.6647 134.661 55.1687C134.779 59.1156 137.201 60.5873 137.938 60.5649C138.675 60.5425 138.712 59.3763 138.844 58.5045C139.592 53.5765 140.884 49.2091 142.359 45.5398C142.942 45.6855 143.519 45.7556 144.055 45.7388C148.568 45.6042 153.799 40.2109 153.628 34.4699ZM144.302 41.2537C147.018 35.9388 149.821 32.9114 150.808 32.8805C152.518 32.8301 151.071 40.5585 144.302 41.2537Z" fill="#252526"/>
<path d="M37.2534 30.8567C36.9423 30.5792 36.5778 30.4362 36.1686 30.4362C35.8882 30.4362 35.6191 30.5119 35.3725 30.6633C35.1202 30.8175 34.9268 31.0585 34.8006 31.3753L30.4949 40.9622C30.4641 41.0295 30.408 41.1528 30.3519 41.2706C30.3155 41.1528 30.2763 41.0351 30.251 40.9706C30.2174 40.8809 30.094 40.6258 30.094 40.6258L25.9117 31.3445C25.6314 30.7418 25.1604 30.4362 24.5129 30.4362C23.714 30.4166 22.8085 31.0641 22.8366 31.9051C22.8366 32.1237 22.8814 32.3088 22.9683 32.4966L28.6476 44.5615C28.2916 45.3156 27.9384 46.0696 27.5824 46.8237C27.0161 48.0291 26.4499 49.2317 25.8808 50.437C25.6314 50.964 25.3735 51.4658 25.3791 52.0348C25.3651 52.8366 25.9537 53.5149 26.7835 53.4953C27.7366 53.4953 28.2243 52.3712 28.2243 52.3712L37.5954 32.4938C37.6823 32.3004 37.7271 32.0901 37.7271 31.8743C37.7271 31.4818 37.5674 31.137 37.2506 30.8539L37.2534 30.8567Z" fill="#252526"/>
<path d="M20.183 25.0906C19.8802 24.7766 19.4878 24.6196 19.0168 24.6196C18.3525 24.6196 17.8143 25.0037 17.4162 25.7577L10.7811 38.4478C10.7811 38.4478 10.6605 38.6636 10.6269 38.7421C10.5932 38.8206 10.5372 38.9468 10.5035 39.0253C10.4699 38.9496 10.411 38.8206 10.3802 38.7421C10.3494 38.6664 10.226 38.4478 10.226 38.4478L3.58806 25.7577C3.19 25.0009 2.64899 24.6196 1.98743 24.6196C1.5165 24.6196 1.12405 24.7794 0.821305 25.0906C0.521363 25.4017 0.367188 25.8082 0.367188 26.2959V44.4522C0.367188 44.9204 0.504544 45.3044 0.773651 45.5959C1.04556 45.8903 1.41558 46.0388 1.8669 46.0388C2.31821 46.0388 2.71066 45.8931 2.97416 45.61C3.23486 45.3296 3.36661 44.9372 3.36661 44.4494V31.5603L3.361 31.2912L3.50116 31.6276L8.92815 41.7948C9.3262 42.5292 9.856 42.9021 10.5007 42.9021C11.1455 42.9021 11.6753 42.5292 12.0733 41.7948L17.5003 31.6276L17.6405 31.2912L17.6349 31.5603V44.4494C17.6349 44.9372 17.7666 45.3268 18.0273 45.61C18.2908 45.8959 18.6636 46.0388 19.1346 46.0388C19.6055 46.0388 19.9559 45.8903 20.2278 45.5959C20.4969 45.3044 20.6343 44.9204 20.6343 44.4522V26.2959C20.6343 25.8082 20.4829 25.4017 20.1802 25.0906H20.183Z" fill="#252526"/>
</svg>