<svg width="20" height="20" viewBox="0 0 20 20" fill="none" xmlns="http://www.w3.org/2000/svg">
<path fill-rule="evenodd" clip-rule="evenodd" d="M8.33236 12.502C10.6335 12.502 12.499 10.6365 12.499 8.33529C12.499 6.0341 10.6335 4.16862 8.33236 4.16862C6.03117 4.16862 4.16569 6.0341 4.16569 8.33529C4.16569 10.6365 6.03117 12.502 8.33236 12.502ZM8.33236 14.1686C11.554 14.1686 14.1657 11.5569 14.1657 8.33529C14.1657 5.11362 11.554 2.50195 8.33236 2.50195C5.1107 2.50195 2.49902 5.11363 2.49902 8.33529C2.49902 11.5569 5.1107 14.1686 8.33236 14.1686Z" fill="white"/>
<path fill-rule="evenodd" clip-rule="evenodd" d="M14.3083 14.3112C13.9829 14.6366 13.9829 15.1642 14.3083 15.4897L16.0761 17.2574C16.4015 17.5829 16.9291 17.5829 17.2546 17.2574C17.58 16.932 17.58 16.4044 17.2546 16.0789L15.4868 14.3112C15.1614 13.9857 14.6337 13.9857 14.3083 14.3112Z" fill="white"/>
</svg>
