<?xml version="1.0" encoding="utf-8"?>
<!-- Generator: Adobe Illustrator 25.2.0, SVG Export Plug-In . SVG Version: 6.00 Build 0)  --><svg height="100" id="Layer_1" style="enable-background:new 0 0 100 100;" version="1.1" viewBox="0 0 100 100" width="100" x="0px" xml:space="preserve" xmlns="http://www.w3.org/2000/svg" xmlns:xlink="http://www.w3.org/1999/xlink" y="0px">
<style type="text/css">
	.st0{fill:#FFFFFF;}
</style>
<g>
	<path class="st0" d="M57.63,73.25c-0.3,7.72-6.79,13.91-14.76,13.91c-1.82,0-3.56-0.32-5.18-0.92c1.61,0.59,3.35,0.92,5.18,0.92   C50.84,87.16,57.34,80.97,57.63,73.25l0.03-68.9h12.88c1.24,6.55,5.22,12.17,10.73,15.68c0,0,0,0,0.01,0.01   c3.84,2.44,8.41,3.87,13.32,3.87v3.83c0,0,0,0,0,0V41.1c-9.12,0-17.57-2.85-24.47-7.69v34.94c0,17.45-14.52,31.64-32.38,31.64   c-6.9,0-13.3-2.13-18.56-5.74c0,0-0.01-0.01-0.01-0.01c-8.34-5.73-13.81-15.2-13.81-25.9c0-17.45,14.52-31.64,32.38-31.64   c1.48,0,2.93,0.12,4.36,0.31v4.07c-16.29,0.37-29.64,12.55-31.41,28.1c1.77-15.55,15.13-27.72,31.41-28.1v13.48   c-1.38-0.42-2.84-0.67-4.36-0.67c-8.15,0-14.79,6.48-14.79,14.45c0,5.55,3.22,10.37,7.93,12.79c0,0,0,0,0,0   c2.05,1.06,4.38,1.66,6.86,1.66c7.97,0,14.46-6.19,14.76-13.91l0.03-68.9h17.59c0,1.49,0.15,2.95,0.42,4.36H57.66L57.63,73.25z"/>
</g>
</svg>