<?xml version="1.0" encoding="utf-8"?>
<!-- Generator: Adobe Illustrator 23.1.0, SVG Export Plug-In . SVG Version: 6.00 Build 0)  -->
<svg version="1.1" id="Layer_1" xmlns="http://www.w3.org/2000/svg" xmlns:xlink="http://www.w3.org/1999/xlink" x="0px" y="0px"
	 viewBox="0 0 24 24" style="enable-background:new 0 0 24 24;" xml:space="preserve">
<style type="text/css">
	.st0{fill:#FFFFFF;}
</style>
<path class="st0" d="M5.6,21c-0.4,0-0.8-0.2-1.1-0.5C4.2,20.2,4,19.8,4,19.4V8.6c0-0.4,0.2-0.8,0.5-1.1C4.8,7.2,5.2,7,5.6,7H8
	c0-1.1,0.4-2.1,1.2-2.8C9.9,3.4,10.9,3,12,3s2.1,0.4,2.8,1.2C15.6,4.9,16,5.9,16,7h2.4c0.4,0,0.8,0.2,1.1,0.5
	C19.8,7.8,20,8.2,20,8.6v10.8c0,0.4-0.2,0.8-0.5,1.1c-0.3,0.3-0.7,0.5-1.1,0.5H5.6z M5.6,20h12.8c0.2,0,0.3-0.1,0.4-0.2
	c0.1-0.1,0.2-0.3,0.2-0.4V8.6c0-0.2-0.1-0.3-0.2-0.4C18.7,8.1,18.5,8,18.4,8H5.6C5.5,8,5.3,8.1,5.2,8.2C5.1,8.3,5,8.5,5,8.6v10.8
	c0,0.2,0.1,0.3,0.2,0.4S5.5,20,5.6,20z M12,13c1.1,0,2.1-0.4,2.8-1.2C15.6,11.1,16,10.1,16,9h-1c0,0.8-0.3,1.5-0.9,2.1
	S12.8,12,12,12s-1.5-0.3-2.1-0.9C9.3,10.5,9,9.8,9,9H8c0,1.1,0.4,2.1,1.2,2.8C9.9,12.6,10.9,13,12,13z M9,7h6c0-0.8-0.3-1.5-0.9-2.1
	S12.8,4,12,4s-1.5,0.3-2.1,0.9C9.3,5.5,9,6.2,9,7z M5,20V8V20z"/>
</svg>
