<?xml version="1.0" encoding="utf-8"?>
<!-- Generator: Adobe Illustrator 23.1.0, SVG Export Plug-In . SVG Version: 6.00 Build 0)  -->
<svg version="1.1" id="Layer_1" xmlns="http://www.w3.org/2000/svg" xmlns:xlink="http://www.w3.org/1999/xlink" x="0px" y="0px"
	 viewBox="0 0 24 24" style="enable-background:new 0 0 24 24;" xml:space="preserve">
<style type="text/css">
	.st0{fill:#FFFFFF;}
</style>
<path class="st0" d="M12,11.4c-0.8,0-1.5-0.3-2.1-0.9C9.3,9.9,9,9.2,9,8.4c0-0.8,0.3-1.5,0.9-2.1c0.6-0.6,1.3-0.9,2.1-0.9
	c0.8,0,1.5,0.3,2.1,0.9C14.7,6.9,15,7.6,15,8.4c0,0.8-0.3,1.5-0.9,2.1C13.5,11.1,12.8,11.4,12,11.4z M5,18.6V17
	c0-0.4,0.1-0.8,0.4-1.2c0.2-0.4,0.6-0.6,1-0.8c0.9-0.5,1.9-0.8,2.8-1c0.9-0.2,1.9-0.3,2.8-0.3c0.9,0,1.9,0.1,2.8,0.3
	c0.9,0.2,1.9,0.6,2.8,1c0.4,0.2,0.7,0.5,1,0.8c0.2,0.4,0.4,0.7,0.4,1.2v1.6H5z M6,17.6h12V17c0-0.2-0.1-0.4-0.2-0.6
	c-0.1-0.2-0.3-0.4-0.6-0.5c-0.8-0.4-1.7-0.7-2.5-0.9c-0.9-0.2-1.8-0.3-2.6-0.3s-1.8,0.1-2.6,0.3c-0.9,0.2-1.7,0.5-2.5,0.9
	c-0.3,0.1-0.5,0.3-0.6,0.5C6.1,16.5,6,16.7,6,17V17.6z M12,10.4c0.6,0,1-0.2,1.4-0.6S14,8.9,14,8.4s-0.2-1-0.6-1.4
	C13,6.6,12.6,6.4,12,6.4c-0.6,0-1,0.2-1.4,0.6C10.2,7.4,10,7.8,10,8.4s0.2,1,0.6,1.4S11.4,10.4,12,10.4z"/>
</svg>
