<?xml version="1.0" encoding="utf-8"?>
<!-- Generator: Adobe Illustrator 23.1.0, SVG Export Plug-In . SVG Version: 6.00 Build 0)  -->
<svg version="1.1" id="Layer_1" xmlns="http://www.w3.org/2000/svg" xmlns:xlink="http://www.w3.org/1999/xlink" x="0px" y="0px"
	 viewBox="0 0 24 24" style="enable-background:new 0 0 24 24;" xml:space="preserve">
<style type="text/css">
	.st0{fill:#FFFFFF;}
</style>
<path class="st0" d="M19.5,20.2l-6.3-6.3c-0.5,0.4-1.1,0.8-1.7,1c-0.6,0.2-1.3,0.4-2,0.4c-1.6,0-3-0.6-4.1-1.7
	c-1.1-1.1-1.7-2.5-1.7-4.1c0-1.6,0.6-3,1.7-4.1c1.1-1.1,2.5-1.7,4.1-1.7c1.6,0,3,0.6,4.1,1.7c1.1,1.1,1.7,2.5,1.7,4.1
	c0,0.7-0.1,1.4-0.4,2c-0.2,0.7-0.6,1.2-1,1.7l6.3,6.3C20.2,19.4,19.5,20.2,19.5,20.2z M9.5,14.2c1.3,0,2.4-0.5,3.4-1.4
	c0.9-0.9,1.4-2,1.4-3.4s-0.5-2.4-1.4-3.4c-0.9-0.9-2-1.4-3.4-1.4c-1.3,0-2.4,0.5-3.4,1.4c-0.9,0.9-1.4,2-1.4,3.4s0.5,2.4,1.4,3.4
	C7.1,13.8,8.2,14.2,9.5,14.2z"/>
</svg>
