<?xml version="1.0"?>
<svg fill="none" height="15" viewBox="0 0 40 15" width="40" xmlns="http://www.w3.org/2000/svg">
<rect fill="white" height="15" rx="7.5" width="38.7" x="0.557617"/>
<path clip-rule="evenodd" d="M8.58428 3H5.95703V12H8.58428V10.0843L9.25797 9.14579L10.796 12H13.9277H13.9285H16.917V3H13.9277V11.9987L11.1329 6.90867L13.8724 3H10.8185L8.58428 6.36862V3ZM23.1389 7.51292C23.1389 8.81147 22.3357 9.37715 21.0906 9.37715H20.6367V5.62305H21.0906C22.3357 5.62305 23.1389 6.18859 23.1389 7.48715V7.51292ZM21.0326 3H17.9141V12H20.9397C24.2329 12 25.8855 10.11 25.8855 7.44852V7.42302C25.8855 4.76154 24.2679 3 21.0326 3ZM27.3774 8.6902L25.8857 10.5373C26.9477 11.5043 28.4752 12 30.1698 12C32.4131 12 33.8572 10.8844 33.8572 9.06206V9.03734C33.8572 7.28928 32.4251 6.64471 30.289 6.2355C29.406 6.06193 29.1793 5.91335 29.1793 5.67771V5.65299C29.1793 5.44221 29.3702 5.29349 29.7879 5.29349C30.5636 5.29349 31.5063 5.55384 32.2939 6.14885L33.6542 4.19014C32.6876 3.39671 31.4943 3 29.8834 3C27.5802 3 26.3393 4.27692 26.3393 5.92571V5.95056C26.3393 7.78527 27.986 8.34306 29.8596 8.73978C30.7544 8.92571 31.0171 9.06206 31.0171 9.30993V9.33478C31.0171 9.57028 30.8022 9.70664 30.3011 9.70664C29.3224 9.70664 28.2842 9.4092 27.3774 8.6902Z" fill="black" fill-rule="evenodd"/>
</svg>