<?xml version="1.0" encoding="utf-8"?>
<!-- Generator: Adobe Illustrator 23.1.0, SVG Export Plug-In . SVG Version: 6.00 Build 0)  -->
<svg version="1.1" id="_레이어_1" xmlns="http://www.w3.org/2000/svg" xmlns:xlink="http://www.w3.org/1999/xlink" x="0px"
	 y="0px" viewBox="0 0 198.8 329.5" style="enable-background:new 0 0 198.8 329.5;" xml:space="preserve">
<style type="text/css">
	.st0{fill:#FFFFFF;}
</style>
<g>
	<g id="Layer_1-2">
		<path class="st0" d="M4.6,329.5c0.8-3.2,2.1-6.1,2.1-9c0.2-22.8,0-45.7,0-68.5s1-9.4-3.8-12.9h68.6v-57.5H5.7
			c-1-6,1.8-12.6-5.7-16.6c6.7-2.3,7.2-7.6,8.3-12.6C18.5,106.7,28.8,61,39.2,15.3c0.8-3.8,2-7.5,2.5-11.3c0.4-3.1,1.7-4.4,4.8-3.9
			c1.7,0.1,3.4,0.1,5.2,0c2,8.5,3.9,16.9,5.8,25.3c9.8,43.4,19.5,86.8,29.2,130.2c0.9,4.2,2.7,7.4,7.4,9.4
			c-5.8,3.4-5.2,8.5-5.2,13.4c0,25.6,0,51.2,0,76.8v5.3c-5.9-7.4-13.2-4.7-19.9-4.9c-14.8-0.3-29.7-0.1-44.9-0.1v57.6
			c1.1,0,2.3,0.2,3.5,0.2h62.2c5.5,0,7.7-1.7,8.9-7c10.4-46.1,20.8-92.1,31.2-138.2c0.2-1.1,0.3-2.2,0.4-3.3H94.7
			c5-4.3,3.9-9.8,3.9-15.1V13.8c0-4.9,0.7-9.9-4.3-13.4h66.2c-6.3,4.2-4.8,10.1-4.8,15.6c0,45.4,0,90.9,0,136.3s-0.3,9.1,4.2,12.5
			h-19.8c11.9,53,23.7,105.5,35.6,158h0.9c0-1.2,0.2-2.4,0.2-3.6V69.1c0-19-0.1-37.9,0-56.9c0-4.7-0.6-8.6-4.6-11.8H199
			c-7.6,4.2-5.6,10.6-5.6,16.4c0,99.9,0,199.7,0,299.6c0,4.7-1,9.8,4.5,12.9c-0.9,0.1-1.8,0.2-2.7,0.3h-28.1c-5.4,0-7-1.1-8.2-6.6
			c-2.3-10.2-4.5-20.4-6.7-30.7c-5.3-24.6-10.6-49.2-15.9-73.8c-0.3-0.9-0.6-1.8-1-2.7c-1.7,7.7-3.3,14.5-4.8,21.3
			c-6,28-12.1,56-18.1,84.1c-0.4,1.8-0.7,3.9-1.8,5.2s-3.3,3-5,3c-33.6,0.2-67.2,0.1-100.7,0.1C4.6,329.5,4.2,329.5,4.6,329.5
			L4.6,329.5z M138.4,148.2v-131h-22.7v131H138.4z M47.6,52.4h-0.7c-0.2,0.7-0.4,1.3-0.6,2c-5.2,24.1-10.3,48.2-15.6,72.2
			c-2.8,12.8-4.6,25.8-9.1,38h51.5c-1.1-2.4-1.9-4.8-2.7-7.4c-6.1-27.9-12.1-55.7-18-83.6c-1.5-7.1-3.1-14.2-4.7-21.3L47.6,52.4z"/>
	</g>
</g>
</svg>
