<svg xmlns="http://www.w3.org/2000/svg" viewBox="0 0 198.83 329.53"><defs><style>.cls-1{fill:#fff;}</style></defs><title>Asset 2</title><g id="Layer_2" data-name="Layer 2"><g id="Layer_1-2" data-name="Layer 1"><path class="cls-1" d="M4.57,329.45c.79-3.23,2.09-6.09,2.12-9,.17-22.84.1-45.68.1-68.52,0-4.56,1-9.43-3.83-12.87H71.54V181.59H5.69C4.74,175.63,7.5,169,0,165c6.65-2.34,7.16-7.57,8.29-12.59Q23.67,83.87,39.18,15.32c.85-3.77,2-7.5,2.52-11.31C42.14.91,43.37-.38,46.53.1a38.22,38.22,0,0,0,5.17,0C53.65,8.65,55.58,17,57.46,25.37q14.66,65.1,29.21,130.24c.94,4.25,2.72,7.38,7.38,9.36-5.75,3.39-5.16,8.46-5.15,13.45q.09,38.39,0,76.77v5.26c-5.86-7.43-13.23-4.72-19.88-4.85-14.83-.3-29.68-.1-44.86-.1v57.59c1.13.08,2.33.23,3.52.23q31.08,0,62.16,0c5.52,0,7.72-1.74,8.92-7q15.61-69.09,31.2-138.2a31.68,31.68,0,0,0,.35-3.26H94.73c5-4.28,3.9-9.84,3.9-15.09q0-68,0-135.93c0-4.86.73-9.92-4.35-13.38h66.16c-6.31,4.23-4.84,10.11-4.84,15.55q-.06,68.16-.06,136.3c0,4.57-.33,9.08,4.18,12.5H139.91c11.93,53,23.74,105.52,35.55,158l.9,0c0-1.2.16-2.4.16-3.6q0-125.07,0-250.14c0-19-.11-37.94.08-56.91.05-4.65-.6-8.63-4.58-11.76h26.78c-7.58,4.24-5.64,10.64-5.65,16.38q-.08,149.79,0,299.56c0,4.72-1,9.8,4.53,12.89a24.71,24.71,0,0,1-2.7.28q-14,0-28.08,0c-5.44,0-7-1.12-8.2-6.56-2.31-10.21-4.53-20.44-6.73-30.68q-7.95-36.91-15.87-73.83a28.86,28.86,0,0,0-1-2.73c-1.73,7.74-3.3,14.52-4.76,21.32q-9.06,42-18.07,84.07c-.39,1.81-.65,3.91-1.75,5.25s-3.27,3-5,3c-33.57.17-67.15.11-100.72.1C4.47,329.49,4.13,329.36,4.57,329.45Zm133.78-181.3v-131H115.63v131ZM47.61,52.38l-.74,0c-.2.65-.44,1.29-.58,2C41.08,78.44,36,102.55,30.64,126.62c-2.82,12.77-4.61,25.8-9.14,38H73a58.63,58.63,0,0,1-2.67-7.36q-9.09-41.79-18-83.6C50.8,66.54,49.19,59.46,47.61,52.38Z"/></g></g></svg>