<?xml version="1.0" encoding="UTF-8"?>
<svg id="_레이어_1" data-name="레이어 1" xmlns="http://www.w3.org/2000/svg" version="1.1" viewBox="0 0 198.8 329.5">
  <defs>
    <style>
      .cls-1 {
        fill: #000;
        stroke-width: 0px;
      }
    </style>
  </defs>
  <g id="Layer_2" data-name="Layer 2">
    <g id="Layer_1-2" data-name="Layer 1-2">
      <path class="cls-1" d="M4.6,329.5c.8-3.2,2.1-6.1,2.1-9,.2-22.8,0-45.7,0-68.5s1-9.4-3.8-12.9h68.6v-57.5H5.7c-1-6,1.8-12.6-5.7-16.6,6.7-2.3,7.2-7.6,8.3-12.6C18.5,106.7,28.8,61,39.2,15.3c.8-3.8,2-7.5,2.5-11.3.4-3.1,1.7-4.4,4.8-3.9,1.7.1,3.4.1,5.2,0,2,8.5,3.9,16.9,5.8,25.3,9.8,43.4,19.5,86.8,29.2,130.2.9,4.2,2.7,7.4,7.4,9.4-5.8,3.4-5.2,8.5-5.2,13.4,0,25.6,0,51.2,0,76.8v5.3c-5.9-7.4-13.2-4.7-19.9-4.9-14.8-.3-29.7-.1-44.9-.1v57.6c1.1,0,2.3.2,3.5.2h62.2c5.5,0,7.7-1.7,8.9-7,10.4-46.1,20.8-92.1,31.2-138.2.2-1.1.3-2.2.4-3.3h-35.6c5-4.3,3.9-9.8,3.9-15.1V13.8c0-4.9.7-9.9-4.3-13.4h66.2c-6.3,4.2-4.8,10.1-4.8,15.6,0,45.4,0,90.9,0,136.3s-.3,9.1,4.2,12.5h-19.8c11.9,53,23.7,105.5,35.6,158h.9c0-1.2.2-2.4.2-3.6V69.1c0-19-.1-37.9,0-56.9,0-4.7-.6-8.6-4.6-11.8h26.8c-7.6,4.2-5.6,10.6-5.6,16.4,0,99.9,0,199.7,0,299.6,0,4.7-1,9.8,4.5,12.9-.9.1-1.8.2-2.7.3h-28.1c-5.4,0-7-1.1-8.2-6.6-2.3-10.2-4.5-20.4-6.7-30.7-5.3-24.6-10.6-49.2-15.9-73.8-.3-.9-.6-1.8-1-2.7-1.7,7.7-3.3,14.5-4.8,21.3-6,28-12.1,56-18.1,84.1-.4,1.8-.7,3.9-1.8,5.2s-3.3,3-5,3c-33.6.2-67.2.1-100.7.1-.3,0-.7,0-.2,0ZM138.4,148.2V17.2h-22.7v131h22.7ZM47.6,52.4h-.7c-.2.7-.4,1.3-.6,2-5.2,24.1-10.3,48.2-15.6,72.2-2.8,12.8-4.6,25.8-9.1,38h51.5c-1.1-2.4-1.9-4.8-2.7-7.4-6.1-27.9-12.1-55.7-18-83.6-1.5-7.1-3.1-14.2-4.7-21.3Z"/>
    </g>
  </g>
</svg>