<svg xmlns="http://www.w3.org/2000/svg" viewBox="0 0 638.64 151.72"><defs><style>.cls-1{fill:#fff;}</style></defs><title>Asset 3</title><g id="Layer_2" data-name="Layer 2"><g id="Layer_1-2" data-name="Layer 1"><path class="cls-1" d="M0,127.61l22.35-15.49c1.14,5.13,1.67,10.08,3.35,14.61,6.05,16.31,26.67,23.45,42,15,12.32-6.76,14.2-23.36.46-30.2-14.28-7.1-28.62-14.09-42.84-21.29a43.12,43.12,0,0,1-9.09-6.06C5,74.18,5.05,58.94,16.22,48.8,24.56,41.22,35,39,45.68,38a68.38,68.38,0,0,1,37.21,7.34c3.2,1.6,6.08,3.82,9.78,6.19l-25,17c3-13.35-.38-21.13-10.57-25.1a20.76,20.76,0,0,0-15.57-.08c-6.47,2.53-10.94,7-12.12,14-1.22,7.33,1.56,13.45,7.78,17.08,7.72,4.51,16,8.08,24,12s16.46,7.29,24,12c16.91,10.46,18,28.75,2.85,41.44-12.86,10.74-28.3,12.75-44.23,11.38-14.4-1.24-27.58-6-38-16.69C3.89,132.65,2.25,130.34,0,127.61Z"/><path class="cls-1" d="M194.43,80.37,141.1,117.65l-.5-.38L174,74.71c-7.4-14.56-23.21-16.53-34.09-4.46-15.43,17.14-8.47,54.36,12.1,64.66a36.65,36.65,0,0,0,42.08-6.26,20.11,20.11,0,0,1,1.9-1.4c-8.48,17.2-30.69,27.3-49.26,22.91-23-5.45-36.95-23.27-36.75-47,.19-22.86,14.76-40.79,37.12-45.69C166.08,53.33,186.26,62.92,194.43,80.37Z"/><path class="cls-1" d="M319,148.38V143q0-55.43-.06-110.84c0-3.12.62-5,3.67-6.63,8.32-4.43,13.85-11.72,19-21,.2,2.31.38,3.43.38,4.55q0,63.17,0,126.32c0,4.93.35,9.63,5.95,13Z"/><path class="cls-1" d="M586,57.62H573.18C589,50,600.25,38.23,608.38,22.68v31c8.52,0,16.45-.11,24.38.09,2,.05,3.92,1.11,5.88,1.71-1.89.7-3.77,1.94-5.68,2-7.94.22-15.89.09-24.16.09-.11,2.11-.27,3.72-.27,5.33q0,32.7,0,65.4c0,13.54,11.72,21.1,24.33,15.71a18.4,18.4,0,0,1,4-1.5c-7.23,7-16.23,8.85-25.84,7.84-17.22-1.8-24.92-10.65-24.94-28.08C586,100.94,586,79.65,586,57.62Z"/><path class="cls-1" d="M450.84,65c2.57-1.63,5-3.63,7.74-4.81a37.16,37.16,0,0,1,30.08-.06c8.12,3.45,13.2,9.78,13.38,18.81.39,18.62.31,37.26.46,55.89,0,5-.06,10.11,6.53,13.55H480v-5.24q0-31.71,0-63.4c0-14.64-13.21-22.28-26.22-15.16-.8.43-1.58.9-2.36,1.35Z"/><path class="cls-1" d="M552.6,47.83q0,43.92,0,87.84c0,4.79.35,9.38,6.28,12.64H530.1c-.11-1.35-.32-2.77-.32-4.19,0-24.46,0-48.93-.09-73.39,0-3.25.81-5,3.94-6.37C541.49,60.81,547.49,55,552.6,47.83Z"/><path class="cls-1" d="M395.89,65.18a46.72,46.72,0,0,1,3.51-3.12c10.26-6.79,27.86-6.57,37.93.44,7.28,5.07,9.52,12.46,9.53,20.84q0,26.21,0,52.4c0,4.75.31,9.39,6.5,12.61H424.69c-.07-1.56-.22-3.13-.22-4.71,0-21.3,0-42.59,0-63.88,0-13.82-10.89-21.13-24-16.26Z"/><path class="cls-1" d="M297.86,148.4H269.21c-.13-1.47-.33-2.74-.33-4,0-24,0-47.92-.08-71.87,0-3,.7-4.71,3.64-6.07,8-3.69,14.2-9.49,19.22-17.05v2.19q0,41.67,0,83.34C291.65,139.81,291.69,144.7,297.86,148.4Z"/><path class="cls-1" d="M260.93,142.78c-11.34,13.29-41.19,10.24-48.71-5a30.44,30.44,0,0,1-2.79-12.47c-.31-16.45-.19-32.92,0-49.37,0-1.47,1-3.69,2.12-4.26,8.21-4.08,15-9.6,20.24-18.7.16,2.4.31,3.61.32,4.81q0,34.17,0,68.33c0,16.53,12,24,27.3,17A8.2,8.2,0,0,1,260.93,142.78Z"/><path class="cls-1" d="M397.43,148.48H369.09V84H358.17c14.14-8.26,25.53-18.77,32.7-33.92.08,1.35.23,2.71.23,4.06q.07,40.16.12,80.32C391.22,139.49,391.33,144.52,397.43,148.48Z"/><path class="cls-1" d="M527.24,52.48A172,172,0,0,0,553.05,0c3.07,6.73,5.81,12.46,8.22,18.33.43,1-.26,2.83-.95,4C552.17,35.42,540.84,45.14,527.24,52.48Z"/></g></g></svg>